<svg xmlns="http://www.w3.org/2000/svg" id="logo-svg" width="200" height="200" viewBox="0 0 200 200" style="overflow: visible;"><defs><linearGradient id="gradient" x1="0%" y1="0%" x2="100%" y2="100%"><stop offset="0%" style="stop-color: rgb(0, 110, 255); stop-opacity: 1;"/><stop offset="100%" style="stop-color: rgb(0, 213, 255); stop-opacity: 1;"/></linearGradient><filter id="shadow" x="-100%" y="-100%" width="300%" height="300%" filterUnits="objectBoundingBox"><feDropShadow dx="0" dy="12" stdDeviation="16" flood-color="rgb(0,0,0)" flood-opacity="0.09"/><feDropShadow dx="0" dy="24" stdDeviation="32" flood-color="rgb(0,0,0)" flood-opacity="0.07"/><feDropShadow dx="0" dy="36" stdDeviation="48" flood-color="rgb(0,0,0)" flood-opacity="0.05"/></filter></defs><rect x="0" y="0" width="200" height="200" fill="url(#gradient)" rx="39" ry="39" filter="url(#shadow)"/><g transform="translate(29.5 29.5)"><svg xmlns="http://www.w3.org/2000/svg" width="141" height="141" viewBox="0 0 24 24" fill="#ff0000" stroke="#FFFFFF" stroke-width="3" stroke-linecap="round" stroke-linejoin="round" class="lucide lucide-fingerprint" fill-opacity="0"><path d="M12 10a2 2 0 0 0-2 2c0 1.02-.1 2.51-.26 4"/><path d="M14 13.12c0 2.38 0 6.38-1 8.88"/><path d="M17.29 21.02c.12-.6.43-2.3.5-3.02"/><path d="M2 12a10 10 0 0 1 18-6"/><path d="M2 16h.01"/><path d="M21.8 16c.2-2 .131-5.354 0-6"/><path d="M5 19.5C5.5 18 6 15 6 12a6 6 0 0 1 .34-2"/><path d="M8.65 22c.21-.66.45-1.32.57-2"/><path d="M9 6.8a6 6 0 0 1 9 5.2v2"/></svg></g></svg>